# xmcd
#
# Track frame offsets: 
#        150
#        14445
#        30644
#        50965
#        65346
#        85534
#        107979
#        123363
#        140040
#        157806
#
# Disc length: 2728 seconds
#
# Revision: 0
# Processed by: cddbd v1.5.2PL0 Copyright (c) Steve Scherf et al.
# Submitted via: ExactAudioCopyFreeDBPlugin 1.0
#
DISCID=830aa60a
DTITLE=The Sean Chambers Band - Island Blues Warehouse
DYEAR=2011
DGENRE=Blues
TTITLE0=Dixie 45
TTITLE1=Love Can Find A Way
TTITLE2=Full Moon On Main Street
TTITLE3=Strong Temptation
TTITLE4=Dust My Broom
TTITLE5=Crazy For Loving You
TTITLE6=Danger Zone
TTITLE7=Too Much Blues
TTITLE8=Hip Shake Boogie
TTITLE9=In The Winter Time
EXTD=
EXTT0=
EXTT1=
EXTT2=
EXTT3=
EXTT4=
EXTT5=
EXTT6=
EXTT7=
EXTT8=
EXTT9=
PLAYORDER=
